<?xml version="1.0" encoding="utf-8"?>
<!-- Generator: Adobe Illustrator 23.0.0, SVG Export Plug-In . SVG Version: 6.00 Build 0)  -->
<svg version="1.1" id="Capa_1" xmlns="http://www.w3.org/2000/svg" xmlns:xlink="http://www.w3.org/1999/xlink" x="0px" y="0px"
	 viewBox="0 0 532 447" style="enable-background:new 0 0 532 447;" xml:space="preserve">
<style type="text/css">
	.st0{fill:#2C254E;}
	.st1{fill:#ED6D5F;}
	.st2{fill:#61598F;}
	.st3{fill:#ED6C5F;}
	.st4{fill:#FFD35E;}
	.st5{fill:#EBEEF6;}
	.st6{fill:#2C254F;}
	.st7{fill:#FFD35F;}
	.st8{fill:#847EAB;}
	.st9{fill:#2C264F;}
	.st10{fill:#847DAA;}
	.st11{fill:#857EAB;}
	.st12{fill:#2D264F;}
	.st13{fill:#FFD462;}
	.st14{fill:#FFD461;}
	.st15{fill:#FFD361;}
	.st16{fill:#645C91;}
	.st17{fill:#635C91;}
	.st18{fill:#625A90;}
	.st19{fill:#FFD568;}
	.st20{fill:#FFD566;}
	.st21{fill:#FFE9B1;}
	.st22{fill:#FFE49E;}
	.st23{fill:#FFF4D6;}
	.st24{fill:#FFE6A5;}
	.st25{fill:#FFE7A9;}
	.st26{fill:#FFE6A6;}
	.st27{fill:#FFDC80;}
	.st28{fill:#857EAA;}
	.st29{fill:#FFFBF8;}
	.st30{fill:#FED25F;}
	.st31{fill:#FFFEFE;}
	.st32{fill:#342C55;}
	.st33{fill:#FFFFFF;}
	.st34{fill:#944955;}
	.st35{fill:#FDFDFE;}
	.st36{fill:#FCFCFD;}
	.st37{fill:#2F2850;}
	.st38{fill:#8E88B1;}
	.st39{fill:#938DB4;}
	.st40{fill:#8680AC;}
</style>
<g>
	<path class="st0" d="M118.2,217.2c1-6.8,2-13.7,3.1-20.5c0.4-2.6-0.6-2.9-2.9-2.9c-10.6,0.1-21.2-0.1-31.9,0.1
		c-3.3,0.1-4.1-1-3.9-4.1c0.2-3-0.1-6.1-0.2-9.2c-0.6-1.4-0.7-2.9-0.6-4.4c-0.1-2.4-0.1-4.8,0-7.2c0.1-2.4-0.3-4.9,0.7-7.3
		c0.5-5.7,0.5-5.6,6.3-5.9c31-1.6,61.9-3.7,92.9-4.3c15.4-0.3,30.7-1.8,45.8-4.2c1.8,5.4,6.4,7.4,11.2,9.3c4.2,1.7,8.9,2,12.9,4.5
		c0.7,1.5-0.1,2.7-0.6,4c-4.7,13.7-9.5,27.2-14.1,40.9c-9.5,26.8-18.7,53.8-28.2,80.6c-2.3,6.4-4.4,7.1-10.4,3.6
		c-3.2-1.4-6.6-1.7-10-2.4c-2.1-0.5-3.8-1-4.1-3.6c-0.3-2.7-1.5-3.2-3.6-1.2c-0.8,0.8-1.7,1.6-2.7,2.1c-2.7,1.1-5.2-0.7-5.2-3.7
		c0-2.1,0-4.3,0-7.4c-2.6,2.5-4.8,4.4-6.7,6.5c-1.8,2.1-3.8,2.7-6.4,2c-2.5-0.6-5-1-7.9-1.5c18-32.4,35.9-64.7,53.8-97
		c-1.4-0.8-2.3,0.2-3.2,0.6c-14.8,6.4-30.1,10.3-46.5,9.3c-9.7-0.6-19.5-0.1-29.2-0.1c-1.7,0-2.9,0-3.1,2.2
		c-0.7,7.1-2.4,14.1-2.7,21.3c0.3,1.4-0.1,2.7-1.7,2.5C117.5,219.7,117.7,218.4,118.2,217.2z"/>
	<path class="st0" d="M298.4,155.8c11,6.1,22.1,11.8,34.5,14.2c6.9,1.4,14,1.7,21,1.9c29.2,0.7,58.3-0.8,87.5-2.3
		c6.5-0.7,6.6-0.5,6.5,7c-0.2,5.5,0.8,11.1-0.7,16.6c-0.1,3.7-0.2,7.4-0.2,11.1c0,5.5,0,5.5-5.7,5.7c-9.1,0.3-18.1,0.7-27.2,1.1
		c-1.1,0-2.2,0.2-3.5,0.3c1.8,9.1,3.6,18,5.4,26.9c0.6,1,0.8,2-0.4,2.4c-1.3,0.4-2.1-0.3-2-1.8c-1-8.8-3.3-17.3-4.7-26
		c-0.2-1.3-0.9-1.7-2.1-1.6c-10,0.4-19.9,0.7-29.9,1c-1.9,0.1-2.3,1.1-2.4,2.7c-0.5,5-1.2,9.9-1.8,14.8c-0.3,0.7-0.2,1.5-0.1,2.2
		c0.2,1.2,0.2,2.6-1.3,2.5c-1.5-0.1-1.4-1.5-0.9-2.6c0.7-5.6,1.4-11.2,2.1-16.8c0.2-1.7,0.3-2.8-1.9-2.5c-15.8,2.1-30.2-4-45-7.9
		c-8.7-2.3-17.4-4.8-26.9-7.5c10.2,29.2,20.3,57.9,30.4,86.6c-6.3,1.2-12.5,3.2-16.8-5.3c-0.7,6.9-4.8,7.4-8.9,8
		c-2.5,0.4-5,1-7.5,1.6c-2-0.1-2.6-1.9-3.5-3.2c-1.2-1.8-2.4-2.1-3.2,0c-1.7,4.5-5,5.9-9.6,6.1c-4.1,0.2-8.1,1-12.2,1.4
		c-2.8,0.3-4-0.9-4.1-3.6c-0.1-3.4-0.4-6.9,0-10.3c1.2-9.4,0-18.9,1.4-28.2c0.2-1.3,0.1-2.6,0.7-3.7c1.1-1,1.6-2.1,1.7-3.7
		c0.1-1.9,1-3.6,3.2-3.7c2.6-0.1,2.4,2.1,2.9,4.1c0.3-2.2,0.3-4.4,3-4.4c2.4,0,2.8,1.8,3.2,3.8c0.1-2.3,0.3-4.7,3.4-4.7
		c2.5,0,3.2,1.6,3.3,3.8c-1.2-14.9-2-29.8-3-44.6c-0.7-9.7-0.9-19.4-2.1-29.1c-0.2-1.7-0.2-3.3,0.1-5c0.2-1.2,0.7-2.4,2-2.5
		c5-0.5,9.3-2.7,13.7-4.9C297.4,155.5,297.9,155.6,298.4,155.8z"/>
	<path class="st1" d="M266.2,246.8c-0.6,14-1.1,28.1-1.7,42.1c-0.1,2.1,0.1,2.9,2.6,2.5c5.3-0.8,10.6-1.3,16-1.8
		c1.8-0.2,3.1-0.8,3.8-2.6c1-2.2,2.2-4.3,3.5-6.7c2.6,2.3,3.3,5.6,5.5,7.9c-1.5,13.3-2.8,26.7-4.4,40c-1,7.7-4.5,14.3-9.7,20.1
		c-0.4,1.4-1.6,2-2.9,2.1c-6.2,0.6-12.4,1.3-18.3-1.6c-1.2-1.1-1.8-2.6-2.6-4c-3.3-6.6-4.8-13.7-4.8-21.1c0-20.6,0-41.1,0-61.7
		c0-1.9,0.7-4.6-3-3.3c-2.3,5.8-4.5,11.5-6.8,17.3c-1.7,0.9-2.9-0.4-4.2-1.1c-3.6-2-6.9-4.3-11-6.3c0.9,7.7,2.2,15,3.6,22.2
		c0.8,4-0.2,7-2.8,9.8c-3.5,3.9-7.4,7.4-11.5,11.7c3.5-0.6,6.2-1.3,9.1-1.8c1.3-0.2,2.7-1.1,4,0.1c-3.9,10.8-6.5,22.1-13.8,31.4
		c-2.1,2.6-4.1,5.3-6.9,7.1c-7.7,2.4-14.9,0.6-21.9-2.8c-1-0.5-1.3-1.5-1.6-2.5c-2.5-8.2-1.9-16.4,1-24.4c3.6-9.7,7.3-19.3,11-28.9
		c0.1,0,0.3,0,0.4,0c2.5-0.3,5.2,2.4,7.2,0.5c1.6-1.5,1.8-4.4,2.6-6.7c8.9-25.3,17.7-50.6,26.6-75.9c0.3-0.8,0.7-1.6,1-2.5
		c1-0.9,2.3-1.1,3.6-1c7.9,0.6,15.9,1.2,23.8,1.7c0.8,0,1.5,0.4,2,0.9c1.5,3.6,1.5,7.5,1.6,11.3c0.3,8,0.2,16.1,0,24.1
		C267.2,244.2,267,245.6,266.2,246.8z"/>
	<path class="st2" d="M184.7,99c1.6-4.6,5-7.5,9.2-9.7c5.2-2.8,10.6-4.9,16.1-6.9c10-3.7,18.8-9.4,26.6-16.7
		c2.8-0.9,4.6-3.3,7.1-4.8c4.3-2.5,5.3-2.3,7.3,2.4c0.2,0.5,0.4,0.9,0.6,1.4c1,1.9,1.5,4.1,2.7,5.9c0.1,0.1,0.2,0.2,0.6,0.4
		c1.9-2.5,3.5-5.2,4.7-8.1c1.4-3.5,3.8-5.2,7.5-5.4c2.1-0.2,4.3-0.4,6.4-0.9c-5.3-2.3-10.9-4.2-15-8.6c-1.5-2.1-3.6-3.8-5.1-5.9
		c1.2-3.7,3-6.8,7.4-7.1c1.1-0.8,2.3-0.9,3.6-0.9c7.1-0.1,13.8,1.7,20.6,3.2c1,0.2,1.8,0.8,2.4,1.7c1.4,1.5,2.9,3,3.1,5.2
		c1.5,14.8,10.3,25,20.7,34.6c9.2,8.6,19.8,14.2,31.7,17.9c6.1,1.9,8.6,6,7.9,11.6c-0.5,0.2-1,0.2-1.5-0.1
		c-11.2-6-23.6-7.1-35.8-9.2c-7.8-1.2-15.6-2.5-23.4-3.4c-8.7-1-17.2,0.9-25.6,3.5c-1.8,0.6-3.7,1-5.6,1.4c-2.2,0.5-4.5,1.1-6.7,1.6
		c-2.1,0.3-4.1,0.9-6.2,1.1c-4.1,1-8.2,1.5-12.3,1.7c-7,1.2-14,0.4-21,0.5c-7.4-0.7-14.7-1.7-21.9-3.5
		C188.6,101.4,186.2,101,184.7,99z"/>
	<path class="st3" d="M258.4,99.8c14.3-5.2,28.8-7,43.9-3.5c3.8,0.9,7.8,1.3,11.6,2c4,3.3,4.5,8.1,4.6,12.6
		c0.1,7.5-0.6,15.1-3.9,22.1c-2.5,3.8-5.9,6.4-10,8.3c-2.8,1.3-5.7,2.7-7.7,5.4c-0.8,2.2-2.9,2.4-4.7,2.8c-8,2.1-16.2,2.7-24.4,2.3
		c-10.1,0-20.2-0.4-29.9-3.6c-2.8-0.9-5.7-1.9-6.4-5.4c-2.5-1.4-5.1-2.7-7.6-4.2c-5.2-3-7.9-8.1-10.6-13.1c-3-6.9-4.2-13.8-0.8-20.9
		c7.1-0.1,14.2-0.2,21.4-0.3c1.2,0.4,1.6,1.6,2.2,2.5c0.6,1,1.3,1.8,2.3,2.5c5.6,4,14.7,2.6,19.3-2.6
		C259.5,104.3,257.5,102,258.4,99.8z"/>
	<path class="st2" d="M267.5,150.8c8.2-0.2,16.4-0.4,24.4-2.5c1.8-0.5,3.4-1,5-1.8c3.7,2.6,1.5,6.1,1.6,9.3
		c-4.5,2.7-8.9,5.6-14.5,5.6c-2.3,0-1.8,1.8-1.7,3.1c0.5,9.3,1,18.6,1.7,27.9c0.6,9.4,1.4,18.9,2.1,28.3c0.5,7.3,1.1,14.5,1.5,21.8
		c0.1,1.1,0.9,3.1-1,3.1c-1.9,0-1-1.9-1.2-3c-0.2-1.6,0.7-3.8-2.4-3.6c-3.1,0.2-2,2.3-1.9,3.9c0,1.1,1.3,2.8-0.9,2.9
		c-2,0.1-1.4-1.7-1.5-2.9c-0.2-1.4,0.5-3.3-2-3.2c-2.9,0.1-1.6,2.3-1.8,3.7c-0.2,1.1,1.2,2.9-1,3c-2.1,0.1-1-1.9-1.3-2.9
		c-0.4-1.2,1-3.5-1.6-3.4c-2.2,0-2.5,1.7-2.4,3.6c0.1,1.5,0.4,3.3-2.1,3.2c-0.2-13.1,0-26.2-0.9-39.3c-1.2-1.5-1.2-3.3-1.1-5.1
		c0.5-11.8-1-23.5-0.8-35.2c0.1-4.2-0.5-4.6-4.6-4.7c-1.8-0.1-3.6,0.1-5.3-0.4c-2.5-1.1-1-2.4-0.1-3.5c2.6-3.3,5.9-5.4,9.9-6.5
		C264.6,151.7,266.1,151.5,267.5,150.8z"/>
	<path class="st4" d="M82.6,161.8c0,2.4,0,4.8,0.1,7.2c-1.6,1.4-3.6,1.1-5.5,1.1c-10.5,0-20.9,0-31.4,0.1c-2.3,0-6-0.8-6.1,2.2
		c-0.1,3.4,3.7,2.2,5.8,2.3c10.5,0.1,20.9,0,31.4,0.1c2,0,4.2-0.4,5.7,1.4c0,1.5,0,3,0,4.6c-19.3,4.7-38.4,10.4-58.6,16
		c4.6-5.8,8.5-10.8,13.1-16.6c-7.1,1.3-13.3,2.5-19.5,3.7c-0.1-0.2-0.1-0.4-0.2-0.6c5.3-3.1,10.6-6.3,15.9-9.4
		c0-0.4,0.1-0.9,0.1-1.3C20.7,175.7,11,170,1.7,162.1c16.1,0.3,31.6,2.7,47.5,4c-8.5-5.2-16.9-10.4-25.4-15.6c-0.2-0.7,0-1,0.8-0.8
		c17.7,3.7,35.4,7.5,53.1,11.2C79.3,161.2,80.9,161.5,82.6,161.8z"/>
	<path class="st4" d="M261.1,348.2c6.9,1.8,13.9,2.8,20.8,0.1c3.5,15.8,7,31.5,10.6,47.9c-7.6-3.3-7.3-11-11.6-16.6
		c0,9.3,0,17.8,0,27.1c-4.4-4.9-3.9-10.5-4.8-15.6c-1.5-8.4-2.6-16.8-4.2-25.2c-1.7,14.5-1.5,29.2-6.2,43.3
		c-2.1-9.6-3.1-19.4-3.3-29.3c-1.1,3.3-2.3,6.7-3.4,10c-2.2,3-3.2,7.1-7.7,7.8c-0.2-0.3-0.4-0.5-0.6-0.8c1.6-14,5.6-27.6,7.7-41.5
		C259.5,352.9,258.6,349.9,261.1,348.2z"/>
	<path class="st5" d="M84.2,19.8c11.4,0,19.3,8.1,19.6,19.5c0.3,11.5-9,19.5-19.6,19.7c-10.5,0.2-19.6-9.2-19.7-19.9
		C64.4,29.8,74.2,18.4,84.2,19.8z"/>
	<path class="st4" d="M447.2,193.2c-0.3-5.7-0.4-11.3,0.1-17c1.6-1.8,3.7-1.4,5.7-1.4c10.2-0.1,20.4-0.1,30.6,0
		c3.4,0,6.6-0.1,9.4-2.3c2.7,0.6,5.5,1.6,8.2,1.8c10.8,0.5,17.9,7.9,26.1,13.7c-12.7-4.7-25.7-4.8-39.2-3.3
		c7.2,3.5,14.4,7.1,21.6,10.6c-0.1,0.3-0.2,0.5-0.3,0.8c-8.1-2.1-16.2-4.2-24.3-6.3c-0.1,0.2-0.2,0.4-0.4,0.6
		c6.1,5.7,12.2,11.4,18.3,17c-0.2,0.3-0.4,0.6-0.6,0.9c-5.6-2.6-11.2-5.2-16.8-7.8c-4.6-2.2-9.2-4.4-13.9-6.5
		c-0.9-0.4-1.9-0.8-2.9-0.8C461.5,193,454.4,193.1,447.2,193.2z"/>
	<path class="st4" d="M186.3,343.7c4.9,4.3,10.9,4.9,17.1,5.3c2.2,0.1,4.3,0,6.5,0c-1.5,14.1-3,28.2-4.5,42.8
		c-6.1-5.5-4-12.8-5.9-19.5c-4.9,6.2-9.8,12.3-14.6,18.4c-0.2-0.2-0.4-0.3-0.7-0.5c1.7-6.4,3.4-12.8,5-19.3
		c-5.5,8.8-9.3,18.5-17.6,25.5c1.1-10.4,5.6-19.5,9.1-29c0.2-0.4,0.4-0.9,0.1-1.2c-0.2-0.2-0.6,0.3-0.9,0.5
		c-3.2,5-5.5,10.8-12.2,12.4c-0.5,0.1-0.9,0.4-1.4,0.5c-0.2,0-0.5-0.1-1-0.3C172.4,367.4,179.4,355.6,186.3,343.7z"/>
	<path class="st6" d="M314.6,132.9c0.4-4.9,1.8-9.7,2.5-14.6c1.1-7.2-0.1-13.7-3.2-20c10.6,1.4,21.2,2.8,31.2,6.9
		c2,0.8,3.8,2.1,5.6,3.2c-0.4,3.3-3,5.2-5,7.4c-4.5,5.1-10.1,8.6-16.4,11.1C324.4,128.8,319.8,131.7,314.6,132.9z"/>
	<path class="st6" d="M259.2,355.1c-1.4,11.6-4.5,22.9-6.7,34.4c-0.5,2.4-0.4,5-1.9,7.2c-0.1-1.7-0.2-3.3-0.2-5
		c0-42.8,0-85.6,0-128.4c0-1.5-0.1-3.1-0.1-4.6c0.2-1.8,0.9-2.9,2.9-2.6c2.3,0.3,1.3,2.2,1.3,3.3c0.1,20,0.2,40,0,59.9
		c-0.1,9,0.8,17.6,4.7,25.8C260.4,348.5,259.7,351.8,259.2,355.1z"/>
	<path class="st7" d="M287.3,39c-8.7-2.3-17.6-4.1-26.7-4c1-6.4-1.8-11.8-4.6-17.6c4.1,2.8,8.2,5.7,12.7,8.7
		c-0.2-3.8-0.4-6.9-0.4-10.1c0-2-1.5-2.9-2.8-3.9c-4-3-8.1-5.8-12.2-8.8c4.2-0.4,4.2,0.1,14.2,5.4c5.7,3,5.2,8.6,7.9,13.6
		c1.9-5.1,2-10.2,3.9-15.1c0.9,4,1.7,8.1,2.7,12.9c2.1-2.7,3.9-4.9,5.7-7.1c1.4,0,1.1,0.7,0.8,1.6c-1,4.4-2.1,8.9-3.2,13.8
		c3.7-2.3,5.1-6,8.9-8.7C291.6,26.6,289.5,32.8,287.3,39z"/>
	<path class="st8" d="M427.5,239c1.8,3.8,2.5,7.8,2.3,11.9c-0.3,4.7,0.1,9.2,2.2,13.4c1.4,2.9,0.2,4.2-2.4,5.1
		c-5.9,2.1-12.1,3.2-18.4,3.4c-2,0.1-3.3-0.5-3-2.7c0.7-5.6-1.9-10.5-3.9-15.4c-1.7-4.1-2-8.3-0.5-12.5c6.6,1,12.7-1.1,19-2.5
		C424.3,239.2,425.8,238.4,427.5,239z"/>
	<path class="st8" d="M130,221.3c-3.3,7.8-2.7,16-1.7,24.1c0.5,3.9-0.9,5.2-4.6,5.5c-6.2,0.5-12.2-0.3-18.2-1.8
		c-1.1-0.3-2.7-0.6-2.2-2.1c2.9-9.2,0.8-18.9,2.9-28.1c2-1.3,4-0.1,5.9,0.3c4.1,0.8,8.3,1.3,12.5,1C126.4,220,128.4,219.8,130,221.3
		z"/>
	<path class="st8" d="M383,235.9c0.1,3.4-0.9,6.6-1.7,9.8c-1.2,4.7-0.9,9.3-0.1,13.9c0.9,5,0.2,5.8-4.9,6.2
		c-5.8,0.4-11.5-0.1-17.1-1.4c-1.7-0.4-2.9-1-2.5-3.1c1.5-8.7,0.9-17.6,1.8-26.3c0.1-0.5,0.3-1,0.5-1.4c0.9-0.3,1.8-0.4,2.6-0.2
		c5.5,1.5,11,1.6,16.6,1.3C379.9,234.7,381.6,234.6,383,235.9z"/>
	<path class="st4" d="M230.6,310.6c-4.9,1-9.9,2.1-14.8,3.1c-0.4-0.5-0.7-0.9-1.1-1.4c2.7-2.3,5.5-4.4,8.1-6.9
		c9.4-9.2,9.3-9.3,6.9-22.1c-1-5.4-1.8-10.7-2.8-16.7c5.9,3.3,11.3,6.3,16.7,9.4C239.4,287.6,235.4,299.2,230.6,310.6z"/>
	<path class="st9" d="M212.4,104.4c-1.5,7-0.5,14,0.8,20.9c-9.8-3.1-18.7-7.7-24.6-16.6c-2-2.9-3.9-6-3.9-9.7
		C193.7,102.1,203,103.3,212.4,104.4z"/>
	<path class="st9" d="M251.2,397.5c3.4-1.8,4.7-5.7,7.7-7.8c0,15.6,0.1,31.2,0.1,46.9c0,2.9-1,5.3-4.2,5.3c-3.4,0.1-4.5-2.2-4.4-5.4
		c0.1-11.9,0-23.8,0-35.7C250.4,399.6,250.3,398.4,251.2,397.5z"/>
	<path class="st10" d="M267.5,150.8c-0.3,1.8-2,1.6-3,1.9c-5.3,1.3-9.2,4.3-12.3,8.6c-0.2,0.3-0.4,0.3-0.7,0.2
		c-6.8-1.8-13.6-3.4-19.7-7c-2.7-1.6-4.6-3.6-4.1-7c0.7-2.1,1.5-4.1,3.9-4.8c5.5,5.8,12.8,6.3,20,7
		C256.8,150.3,262.2,150.5,267.5,150.8z"/>
	<path class="st11" d="M492.9,172.5c-0.8,2.8-2.5,3.7-5.4,3.7c-13.4-0.1-26.8,0-40.3,0c-0.1-0.2-0.3-0.5-0.3-0.7
		c-0.4-5.5-0.4-5.5-5.6-5.8c2.6-1.1,5.3-0.5,8-0.5c8.8-0.1,17.7-0.1,26.5-0.1c3.7-0.5,7.5-1.1,11.2-1
		C489.9,168,492.7,168.7,492.9,172.5L492.9,172.5z"/>
	<path class="st12" d="M253.2,42.1c2.4,1.1,4,3.1,5.3,5.2c-1.3,6.5-3.4,12.7-7.8,17.9c-2.5-6-2.5-5.9-8.1-2.4
		c-1.9,1.2-3.3,3.4-6.1,3C243.2,58.7,248.8,50.8,253.2,42.1z"/>
	<path class="st13" d="M127.4,92.8c-0.3,6.9,1.8,11.2,9.8,10.9c-8.4,0.2-10.4,5.3-10.7,11.9c-1.6-3.2-0.9-6.9-2.3-9.6
		c-1.7-3.1-6-1.9-9.2-4.1C122.7,103.9,126.3,100.4,127.4,92.8z"/>
	<path class="st14" d="M373.4,40.7c0,6.7,1.7,11.3,10.1,10.7c-8.7,0.2-10.5,5.4-10.7,12.1c-0.3-0.1-0.6-0.2-0.9-0.3
		c-0.5-3.2-0.3-6.8-1.7-9.5c-1.6-3.1-6-1.9-8.8-3.6c0.1-0.1,0.3-0.4,0.4-0.4C368.7,51,372.6,48.1,373.4,40.7z"/>
	<path class="st15" d="M492.9,172.4c-1.1-2.5-3.1-3.4-5.7-3.4c-3.8,0.1-7.6-0.1-11.3-0.1c9.7-2.6,19.5-4.5,29.4-6.4
		c0.2,0.3,0.3,0.6,0.5,1C501.4,166.5,497.2,169.5,492.9,172.4z"/>
	<path class="st16" d="M130,221.3c-8,0.1-16,0.2-23.8-2.4c-0.2-1.2,0.5-1.4,1.5-1.6c3.5-0.7,7-0.6,10.5-0.1c0.2,0.8-0.2,2.1,1,2.1
		c1,0.1,1-1.2,1.5-2c2.7,0.5,5.4,1,8.1,1.6C129.8,219.3,131.2,219.7,130,221.3z"/>
	<path class="st17" d="M427.5,239c-6,2.7-12.6,3.6-19,4.5c-1.6,0.2-3.6,0.7-4.7-1.4c3-2.1,6.5-2.6,9.9-3.2c0.5,0.7,0.7,1.8,1.8,1.3
		c0.8-0.3,0.4-1.3,0.5-2c2.6-0.2,5.3-0.6,7.9-0.7C425.3,237.5,426.8,237.2,427.5,239z"/>
	<path class="st18" d="M383,235.9c-8-0.3-16.2,1.1-23.9-2.3c1.7-2.5,4.3-1.3,6.5-1.6c1.6-0.2,3.3-0.1,4.9-0.1c0.3,0.7-0.3,2,0.9,2.1
		c1,0.1,0.8-1,0.8-1.7c0-0.9-0.1-1.8,0.6-2.4c-0.1,1.6,0.5,2.5,2.3,2.6c2,0.2,4,0.6,5.9,1.1C382.1,233.9,383.8,233.9,383,235.9z"/>
	<path class="st19" d="M394.5,148.2c0.8-5.9-3.7-6.7-7.9-8c3.9-0.2,8.3,0.7,8.7-5c0.5-0.5,0.9-0.5,1.3,0c-1.1,6,4,5.1,8.2,6.7
		c-5.5,0.3-9.1,1.6-8.9,7C395.1,149.4,394.9,148.6,394.5,148.2z"/>
	<path class="st20" d="M177.5,41.3c-0.9,4.8,3.7,3.4,6.4,5.3c-4.9-0.1-7.2,1.9-7.2,6.1c-2,0.2-0.5-1.8-1.4-2.3
		c0.5-4.2-3.2-4-5.7-5.3c3.6,0.2,6.2-0.7,6.5-4.6C177,40.1,177.2,40.9,177.5,41.3z"/>
	<path class="st21" d="M394.5,148.2c0.5,0.2,0.9,0.5,1.4,0.7c-0.1,0.8,0.4,2.1-0.9,1.8C394,150.5,394.5,149.1,394.5,148.2z"/>
	<path class="st22" d="M175.4,50.5c0.5,0.8,0.9,1.5,1.4,2.3c-0.1,0.7,0,1.9-1,0.6C175.1,52.6,175.2,51.5,175.4,50.5z"/>
	<path class="st23" d="M180,366.7c0.3-0.8,0.5-1.7,1.7-2.2c0.1,1.2-0.1,2.2-0.9,3C180.5,367.2,180.2,366.9,180,366.7z"/>
	<path class="st24" d="M396.6,135.2c-0.4,0-0.9,0-1.3,0c-0.1-0.8,0.1-1.8,0.9-1.7C397.2,133.5,396.6,134.6,396.6,135.2z"/>
	<path class="st25" d="M24.6,149.6c-0.3,0.3-0.5,0.5-0.8,0.8c-0.6-0.4-1.2-0.7-1.7-1.1C23,148.6,23.8,149,24.6,149.6z"/>
	<path class="st26" d="M177.5,41.3c-0.4-0.2-0.9-0.5-1.3-0.7c0.1-0.7,0.4-1.8,1.1-1.6C178,39.4,177.5,40.5,177.5,41.3z"/>
	<path class="st27" d="M288.4,14.5c-0.3-0.5-0.5-1-0.8-1.6c0.2-0.6,0.7-1.5,1.2-1.1C289.6,12.6,289.1,13.6,288.4,14.5z"/>
	<path class="st4" d="M251.4,161.4c0.3,0,0.5-0.1,0.7-0.2c3.2,0.1,6.4,0.2,9.5,0.2c1.8,0,2.8,0.3,2.8,2.5
		c0.2,14.5,0.5,29.1,0.7,43.6c-9.7-0.6-19.4-1.1-29.1-1.7C241.2,191,246.3,176.2,251.4,161.4z"/>
	<path class="st28" d="M82.6,176.2c-12.8,0-25.6-0.1-38.4-0.1c-1.2,0-2.3,0-3.5,0c-2-0.1-3.1-1.2-3.2-3.2c-0.1-2,1-3.2,2.8-3.5
		c1.6-0.2,3.3-0.2,5-0.2c12.4,0,24.9-0.1,37.3-0.1C83.1,171.4,83.2,173.8,82.6,176.2z"/>
	<path class="st29" d="M259.2,355.1c0-3.3,0-6.6,0-9.9c0.6,1,1.2,2,1.8,3C260.4,350.5,260.7,353,259.2,355.1z"/>
	<path class="st30" d="M250.7,65.2c2.6-6,5.2-11.9,7.8-17.9c4.7,4.8,11.2,6.4,17.8,9.9c-4.4,0.7-7.9,1.4-11.4,1.7
		c-2,0.2-2.9,1-3.7,2.6c-2,4-4.1,8-6.3,12.2C252.7,71.1,252.2,67.9,250.7,65.2z"/>
	<path class="st31" d="M258.4,99.8c0.5,2.1,2.9,4.1,0.8,6.3c-2.8,3-5.3,6.8-10.2,6.6c-2.5-0.1-5-0.7-7.6-1c-4.5-0.6-6.3-3.8-7.7-7.5
		c4-0.7,8-1.3,12.1-2c2.4,1.6,4.5,1.2,6.4-0.9C254.1,100.3,256.2,99.9,258.4,99.8z"/>
	<path class="st32" d="M252.2,101.3c-1.7,4.1-3.6,4.3-6.4,0.9C247.9,101.9,250.1,101.6,252.2,101.3z"/>
	<path class="st33" d="M293.4,117.5c-7.3-0.3-12.5-4.6-12.4-10.2c0.1-4.6,6.4-11.2,10.5-11.1c7.6,0.3,14.1,6.1,14.2,12.5
		C305.7,112.5,298.3,117.7,293.4,117.5z"/>
	<path class="st12" d="M301.3,128.8c-6.1-0.4-11.7,0.8-16.2,5.3c-1.5,1.5-2.8,1.4-4-0.4c-2.4-3.8-5.3-4.6-9-1.7
		c-0.2,0.2-0.5,0.2-0.7,0.3c-5.5,2.7-5.7,2.9-9.8-1.5c-2.6-2.7-4.8-3.5-7.7-0.9c-2.8,2.6-5,1.7-7.4-0.8c-4-4.3-9-7.1-14.5-9
		c5.1-1,10-1,13.8,3.3c2.4,2.8,5.2,3.3,8.4,1.4c3.8-2.3,7-2.1,9.8,1.7c1.8,2.5,4.2,3.1,7,1.3c1.3-0.8,2.9-1.1,4.2-1.9
		c2.5-1.4,4.7-1.5,6.9,0.7c2,2,4.1,2.4,6.3,0.3c1.8-1.6,3.8-1.6,6.1-1c2.2,0.6,4.5,1.1,6.7,1.6C301.9,128,301.9,128.4,301.3,128.8z"
		/>
	<path class="st12" d="M277,118.4c0.4,1.5-0.5,2.4-3,2c-10.8-1.8-9.8,0.9-5.9-9.1c1.3-3.2,2.7-6.4,4-9.6c0.3-0.8,0.4-2,1.5-1.9
		c1.3,0,1,1.3,1.1,2.1C275.4,107.2,276.1,112.3,277,118.4z"/>
	<path class="st34" d="M301.3,128.8c0-0.4,0-0.8,0-1.2c1,0.1,1.8,0.3,2.6,1.2C302.9,128.8,302.1,128.8,301.3,128.8z"/>
	<path class="st35" d="M426.2,259.2c-1.2,1.3-2.3,2.7-3.6,3.8c-0.9,0.8-1.6,0-2.5-0.7c-1.9-1.6-4.1,0.2-6.1,0.2
		c-1.2,0-2.6,1.1-3.4-0.5c-0.6-1.3,0-2.4,0.9-3.5c2-2.3,3.9-4.7,5.9-7.1c0.9-1.1,2.2-1.4,3.4-1.3c1.5,0.1,1.1,1.7,1.4,2.8
		c0.7,1.9-0.3,4.9,3.2,5C425.7,257.8,425.9,258.6,426.2,259.2z"/>
	<path class="st35" d="M120,229.6c1.6-0.2,2.2,0.6,2,2.5c-0.3,2.4-2,5.2,1.6,6.8c0.4,0.2,0.3,1.9-0.4,2c-1.9,0.2-3.6,3.5-4.9,1.7
		c-2.4-3.4-5.7-1.8-8.5-2.6c-1.7-0.5-2.1-1-1.6-2.5C108.8,235.9,118,229.7,120,229.6z"/>
	<path class="st36" d="M369.9,258.1c-5,0.1-7.8-2.4-7.8-6.9c0-4.3,2.6-6.7,7.5-6.8c4.9-0.1,7.9,2.5,7.9,6.9
		C377.5,255.5,374.7,258,369.9,258.1z"/>
	<path class="st37" d="M297.7,106.6c-0.2,2-1.4,3.2-3.4,3.1c-1.9,0-3-1.3-3.1-3.2c-0.1-2.1,1.2-3.4,3.2-3.4
		C296.4,103.2,297.6,104.4,297.7,106.6z"/>
	<path class="st38" d="M414.7,259.5c1.1-1.8,2.2-3.5,3.8-4.8C419.9,259.5,419.8,259.7,414.7,259.5z"/>
	<path class="st39" d="M117.9,233.7c0,4.8,0,4.8-5.2,4.2C114,235.8,115.9,234.8,117.9,233.7z"/>
	<path class="st40" d="M370,255.6c-2.7-0.2-4.5-1.2-4.5-3.9c0-2.7,1.4-4.3,4.3-4.3c2.8,0,4.2,1.4,4.2,4.3
		C373.9,254.6,372.2,255.4,370,255.6z"/>
</g>
</svg>
